<?xml version="1.0" encoding="UTF-8" standalone="no"?>
<!DOCTYPE svg PUBLIC "-//W3C//DTD SVG 1.1//EN" "http://www.w3.org/Graphics/SVG/1.1/DTD/svg11.dtd">
<svg width="100%" height="100%" viewBox="0 0 8970 3627" version="1.1" xmlns="http://www.w3.org/2000/svg" xmlns:xlink="http://www.w3.org/1999/xlink" xml:space="preserve" xmlns:serif="http://www.serif.com/" style="fill-rule:evenodd;clip-rule:evenodd;stroke-linejoin:round;stroke-miterlimit:2;">
    <g transform="matrix(27.7778,0,0,27.7778,2787.02,69.0222)">
        <path d="M0,15.121L-11.833,15.121C-16.002,15.121 -19.394,11.729 -19.394,7.56C-19.394,3.392 -16.002,0 -11.833,0L-0.597,0C0.833,0 1.993,1.16 1.993,2.591C1.993,4.021 0.833,5.181 -0.597,5.181L-11.833,5.181C-13.145,5.181 -14.213,6.248 -14.213,7.56C-14.213,8.872 -13.145,9.94 -11.833,9.94L0,9.94C1.431,9.94 2.59,11.1 2.59,12.531C2.59,13.961 1.431,15.121 0,15.121" style="fill:rgb(163,213,94);fill-rule:nonzero;"/>
    </g>
    <g transform="matrix(27.7778,0,0,27.7778,2982.93,414.167)">
        <path d="M0,-9.729C-2.682,-9.729 -4.865,-7.547 -4.865,-4.865C-4.865,-2.183 -2.682,0 0,0L4.865,0L4.865,-9.729L0,-9.729ZM7.455,5.181L0,5.181C-5.539,5.181 -10.045,0.674 -10.045,-4.865C-10.045,-10.404 -5.539,-14.91 0,-14.91L7.455,-14.91C8.886,-14.91 10.045,-13.75 10.045,-12.319L10.045,2.59C10.045,4.021 8.886,5.181 7.455,5.181" style="fill:rgb(163,213,94);fill-rule:nonzero;"/>
    </g>
    <g transform="matrix(27.7778,0,0,27.7778,916.689,401.567)">
        <path d="M0,65.274L-10.602,65.274C-12.032,65.274 -13.192,64.114 -13.192,62.683C-13.192,43.934 -0.945,27.991 15.97,22.436C13.329,20.136 11.658,16.752 11.658,12.984C11.658,11.553 12.817,10.394 14.248,10.394L39.098,10.394C43.267,10.394 46.658,13.785 46.658,17.954C46.658,19.855 45.953,21.594 44.791,22.924C45.953,24.253 46.658,25.993 46.658,27.894L46.658,37.834C46.658,39.146 47.726,40.213 49.038,40.213L56.99,40.213C63.783,40.213 69.31,34.687 69.31,27.894L69.31,2.619C69.31,1.913 69.598,1.237 70.108,0.748C70.618,0.26 71.301,0 72.011,0.031L81.951,0.456C83.108,0.505 84.091,1.317 84.36,2.443L91.017,30.38C91.348,31.772 90.489,33.169 89.097,33.501C87.703,33.831 86.309,32.973 85.977,31.581L79.773,5.548L74.49,5.322L74.49,27.894C74.49,37.544 66.64,45.394 56.99,45.394L49.038,45.394C44.869,45.394 41.478,42.003 41.478,37.834L41.478,27.894C41.478,26.582 40.41,25.514 39.098,25.514C37.667,25.514 36.508,24.355 36.508,22.924C36.508,21.493 37.667,20.334 39.098,20.334C40.41,20.334 41.478,19.266 41.478,17.954C41.478,16.642 40.41,15.574 39.098,15.574L17.31,15.574C18.36,18.353 21.047,20.334 24.188,20.334L29.158,20.334C30.589,20.334 31.749,21.493 31.749,22.924C31.749,24.355 30.589,25.514 29.158,25.514C9.534,25.514 -6.587,40.802 -7.922,60.093L0,60.093C1.431,60.093 2.59,61.253 2.59,62.683C2.59,64.114 1.431,65.274 0,65.274" style="fill:rgb(163,213,94);fill-rule:nonzero;"/>
    </g>
    <g transform="matrix(27.7778,0,0,27.7778,3466.13,0.0194444)">
        <path d="M0,20.09L-9.94,20.09C-11.371,20.09 -12.53,18.93 -12.53,17.5C-12.53,16.069 -11.371,14.909 -9.94,14.909L-2.59,14.909L-2.59,5.18L-9.94,5.18C-11.371,5.18 -12.53,4.021 -12.53,2.59C-12.53,1.159 -11.371,0 -9.94,0L0,0C1.431,0 2.59,1.159 2.59,2.59L2.59,17.5C2.59,18.93 1.431,20.09 0,20.09" style="fill:rgb(163,213,94);fill-rule:nonzero;"/>
    </g>
    <g transform="matrix(27.7778,0,0,27.7778,1761.61,2220.7)">
        <path d="M0,-5.207C-0.102,-6.717 -0.503,-8.213 -1.207,-9.698C-1.913,-11.182 -2.868,-12.49 -4.075,-13.623C-5.283,-14.755 -6.692,-15.672 -8.302,-16.377C-9.913,-17.081 -11.648,-17.434 -13.51,-17.434C-15.423,-17.434 -17.17,-17.081 -18.755,-16.377C-20.34,-15.672 -21.736,-14.755 -22.944,-13.623C-24.151,-12.49 -25.108,-11.182 -25.812,-9.698C-26.518,-8.213 -26.919,-6.717 -27.02,-5.207L0,-5.207ZM-27.02,0.831C-26.518,2.844 -25.774,4.566 -24.793,6.001C-23.812,7.435 -22.68,8.617 -21.396,9.548C-20.113,10.48 -18.769,11.159 -17.359,11.586C-15.951,12.014 -14.593,12.228 -13.283,12.228C-10.366,12.228 -7.887,11.511 -5.849,10.076C-3.812,8.643 -2.314,7.02 -1.358,5.208L6.491,5.208C5.483,7.926 4.176,10.189 2.566,12.001C0.955,13.813 -0.768,15.26 -2.604,16.341C-4.441,17.423 -6.328,18.203 -8.265,18.681C-10.202,19.158 -11.976,19.397 -13.585,19.397C-16.555,19.397 -19.334,18.806 -21.925,17.624C-24.518,16.442 -26.769,14.844 -28.68,12.831C-30.593,10.819 -32.103,8.48 -33.209,5.813C-34.315,3.146 -34.869,0.328 -34.869,-2.641C-34.869,-5.761 -34.303,-8.666 -33.171,-11.358C-32.039,-14.05 -30.505,-16.377 -28.566,-18.34C-26.631,-20.302 -24.366,-21.836 -21.774,-22.943C-19.184,-24.05 -16.403,-24.604 -13.435,-24.604C-10.617,-24.604 -7.925,-24.062 -5.358,-22.981C-2.792,-21.898 -0.528,-20.402 1.435,-18.49C3.396,-16.578 4.955,-14.313 6.113,-11.698C7.271,-9.081 7.85,-6.238 7.85,-3.169C7.85,-2.464 7.823,-1.685 7.774,-0.83C7.724,0.026 7.673,0.579 7.623,0.831L-27.02,0.831Z" style="fill:rgb(163,213,94);fill-rule:nonzero;"/>
    </g>
    <g transform="matrix(27.7778,0,0,27.7778,3874.89,1786.75)">
        <path d="M0,13.132C0,10.918 -0.378,8.894 -1.133,7.057C-1.887,5.22 -2.919,3.649 -4.227,2.339C-5.536,1.031 -7.07,0.013 -8.831,-0.718C-10.593,-1.446 -12.479,-1.811 -14.491,-1.811C-16.906,-1.811 -19.008,-1.346 -20.793,-0.416C-22.58,0.516 -24.076,1.711 -25.284,3.169C-26.492,4.629 -27.386,6.239 -27.964,8C-28.543,9.762 -28.831,11.472 -28.831,13.132C-28.831,15.045 -28.48,16.881 -27.774,18.642C-27.07,20.403 -26.09,21.963 -24.831,23.321C-23.574,24.68 -22.064,25.774 -20.303,26.605C-18.542,27.435 -16.631,27.85 -14.566,27.85C-12.504,27.85 -10.593,27.46 -8.831,26.68C-7.07,25.901 -5.536,24.844 -4.227,23.51C-2.919,22.177 -1.887,20.617 -1.133,18.83C-0.378,17.045 0,15.145 0,13.132M0,33.963L0,28L-0.151,28C-1.812,30.316 -3.925,32.065 -6.491,33.246C-9.058,34.428 -11.876,35.02 -14.944,35.02C-18.416,35.02 -21.499,34.403 -24.189,33.17C-26.882,31.939 -29.159,30.303 -31.021,28.265C-32.882,26.227 -34.292,23.901 -35.247,21.283C-36.203,18.668 -36.681,15.976 -36.681,13.207C-36.681,10.642 -36.241,8.051 -35.36,5.434C-34.48,2.819 -33.146,0.441 -31.359,-1.699C-29.574,-3.837 -27.322,-5.586 -24.604,-6.944C-21.888,-8.303 -18.668,-8.982 -14.944,-8.982C-12.026,-8.982 -9.31,-8.416 -6.793,-7.284C-4.277,-6.151 -2.265,-4.629 -0.755,-2.718L-0.604,-2.718L-0.604,-21.888L7.245,-21.888L7.245,33.963L0,33.963Z" style="fill:rgb(39,183,224);fill-rule:nonzero;"/>
    </g>
    <g transform="matrix(27.7778,0,0,27.7778,5495.48,1568.69)">
        <path d="M0,41.813L-4.379,41.813L-13.436,13.661L-13.586,13.661L-22.644,41.813L-26.945,41.813L-42.568,0L-34.191,0L-24.907,27.171L-24.757,27.171L-16.076,0L-10.945,0L-2.266,27.171L-2.113,27.171L7.094,0L15.471,0L0,41.813Z" style="fill:rgb(39,183,224);fill-rule:nonzero;"/>
    </g>
    <g transform="matrix(27.7778,0,0,27.7778,7057.38,2145.25)">
        <path d="M0,0.226C0,-1.988 -0.379,-4.012 -1.133,-5.849C-1.887,-7.686 -2.92,-9.257 -4.227,-10.567C-5.537,-11.875 -7.07,-12.893 -8.832,-13.624C-10.594,-14.352 -12.48,-14.717 -14.492,-14.717C-16.906,-14.717 -19.008,-14.252 -20.793,-13.322C-22.58,-12.39 -24.076,-11.195 -25.285,-9.737C-26.492,-8.277 -27.387,-6.667 -27.965,-4.906C-28.543,-3.144 -28.832,-1.434 -28.832,0.226C-28.832,2.139 -28.48,3.975 -27.775,5.736C-27.07,7.497 -26.09,9.057 -24.832,10.415C-23.574,11.774 -22.064,12.868 -20.303,13.699C-18.543,14.529 -16.631,14.944 -14.566,14.944C-12.504,14.944 -10.594,14.554 -8.832,13.774C-7.07,12.995 -5.537,11.938 -4.227,10.604C-2.92,9.271 -1.887,7.711 -1.133,5.924C-0.379,4.139 0,2.239 0,0.226M-0.152,21.057L-0.152,14.566L-0.303,14.566C-1.812,17.132 -3.838,19.033 -6.379,20.264C-8.92,21.497 -11.623,22.114 -14.492,22.114C-18.014,22.114 -21.16,21.497 -23.926,20.264C-26.693,19.033 -29.021,17.397 -30.908,15.359C-32.795,13.321 -34.229,10.995 -35.209,8.377C-36.191,5.762 -36.682,3.07 -36.682,0.301C-36.682,-2.264 -36.229,-4.855 -35.322,-7.472C-34.418,-10.087 -33.047,-12.465 -31.209,-14.605C-29.373,-16.743 -27.07,-18.492 -24.303,-19.85C-21.537,-21.209 -18.266,-21.888 -14.492,-21.888C-11.574,-21.888 -8.857,-21.295 -6.34,-20.114C-3.824,-18.931 -1.812,-17.182 -0.303,-14.869L-0.152,-14.869L-0.152,-20.755L7.697,-20.755L7.697,21.057L-0.152,21.057Z" style="fill:rgb(39,183,224);fill-rule:nonzero;"/>
    </g>
    <g transform="matrix(27.7778,0,0,27.7778,8021.74,1568.72)">
        <path d="M0,55.775L-8.15,55.775L-2.037,40.982L-18.717,0L-10.264,0L2.037,32.454L14.643,0L23.096,0L0,55.775Z" style="fill:rgb(39,183,224);fill-rule:nonzero;"/>
    </g>
    <g transform="matrix(27.7778,0,0,27.7778,966.861,715.028)">
        <path d="M0,3.484L-18.52,3.484C-19.469,3.484 -20.238,2.705 -20.238,1.741C-20.238,0.779 -19.469,0 -18.52,0L0,0C0.949,0 1.718,0.779 1.718,1.741C1.718,2.705 0.949,3.484 0,3.484" style="fill:rgb(39,183,224);fill-rule:nonzero;"/>
    </g>
    <g transform="matrix(27.7778,0,0,27.7778,786.306,904.114)">
        <path d="M0,3.484L-25.904,3.484C-27.231,3.484 -28.307,2.705 -28.307,1.741C-28.307,0.779 -27.231,0 -25.904,0L0,0C1.327,0 2.403,0.779 2.403,1.741C2.403,2.705 1.327,3.484 0,3.484" style="fill:rgb(39,183,224);fill-rule:nonzero;"/>
    </g>
    <g transform="matrix(27.7778,0,0,27.7778,932.303,3221.98)">
        <path d="M0,8.792C0.673,8.792 1.301,8.667 1.881,8.416C2.461,8.165 2.902,7.832 3.203,7.416C3.475,7.145 3.611,6.865 3.611,6.578L3.611,4.923C2.694,4.564 1.741,4.386 0.752,4.386C-0.193,4.386 -0.964,4.586 -1.559,4.987C-2.153,5.389 -2.451,5.911 -2.451,6.557C-2.451,6.872 -2.39,7.166 -2.268,7.438C-2.146,7.71 -1.975,7.947 -1.752,8.147C-1.53,8.349 -1.269,8.506 -0.967,8.62C-0.667,8.735 -0.344,8.792 0,8.792M-0.495,10.211C-1.025,10.211 -1.519,10.121 -1.978,9.942C-2.437,9.764 -2.834,9.516 -3.171,9.201C-3.508,8.886 -3.773,8.517 -3.966,8.094C-4.16,7.671 -4.256,7.209 -4.256,6.707C-4.256,6.191 -4.142,5.722 -3.913,5.299C-3.684,4.876 -3.357,4.515 -2.935,4.213C-2.512,3.912 -2.01,3.676 -1.43,3.504C-0.849,3.332 -0.215,3.246 0.473,3.246C1.018,3.246 1.569,3.296 2.128,3.396C2.687,3.497 3.182,3.633 3.611,3.805L3.611,2.902C3.611,1.985 3.354,1.265 2.838,0.741C2.322,0.219 1.591,-0.043 0.645,-0.043C-0.487,-0.043 -1.677,0.395 -2.924,1.269L-3.547,0.043C-2.1,-0.932 -0.645,-1.419 0.817,-1.419C2.293,-1.419 3.443,-1.024 4.267,-0.236C5.091,0.552 5.503,1.662 5.503,3.096L5.503,7.675C5.503,8.119 5.704,8.349 6.105,8.362L6.105,9.996C5.904,10.024 5.74,10.046 5.611,10.061C5.482,10.074 5.346,10.082 5.202,10.082C4.83,10.082 4.532,9.972 4.31,9.749C4.088,9.526 3.956,9.258 3.913,8.942L3.87,8.147C3.368,8.821 2.733,9.333 1.967,9.685C1.2,10.035 0.379,10.211 -0.495,10.211" style="fill:rgb(136,143,145);fill-rule:nonzero;"/>
    </g>
    <g transform="matrix(27.7778,0,0,27.7778,1298.34,3187.92)">
        <path d="M0,11.437C-1.175,11.437 -2.063,11.043 -2.666,10.254C-3.268,9.466 -3.568,8.291 -3.568,6.729L-3.568,0L-1.677,0L-1.677,6.364C-1.677,8.657 -0.881,9.803 0.709,9.803C1.483,9.803 2.21,9.556 2.892,9.062C3.572,8.567 4.077,7.89 4.407,7.03L4.407,0L6.299,0L6.299,8.901C6.299,9.345 6.5,9.575 6.901,9.588L6.901,11.222C6.686,11.25 6.517,11.268 6.396,11.276C6.273,11.283 6.155,11.287 6.041,11.287C5.668,11.287 5.356,11.176 5.105,10.954C4.855,10.731 4.722,10.456 4.708,10.125L4.665,8.815C4.163,9.661 3.504,10.308 2.687,10.76C1.87,11.211 0.975,11.437 0,11.437" style="fill:rgb(136,143,145);fill-rule:nonzero;"/>
    </g>
    <g transform="matrix(27.7778,0,0,27.7778,1753.97,3103.74)">
        <path d="M0,13.694C-0.115,13.751 -0.265,13.819 -0.452,13.898C-0.638,13.977 -0.849,14.055 -1.085,14.134C-1.322,14.214 -1.58,14.277 -1.859,14.328C-2.139,14.378 -2.429,14.403 -2.73,14.403C-3.418,14.403 -4.013,14.214 -4.515,13.834C-5.016,13.454 -5.267,12.863 -5.267,12.06L-5.267,4.514L-6.793,4.514L-6.793,3.031L-5.267,3.031L-5.267,-0.709L-3.375,-0.709L-3.375,3.031L-0.86,3.031L-0.86,4.514L-3.375,4.514L-3.375,11.479C-3.347,11.895 -3.21,12.196 -2.967,12.382C-2.723,12.569 -2.437,12.662 -2.107,12.662C-1.734,12.662 -1.394,12.601 -1.085,12.479C-0.777,12.357 -0.566,12.26 -0.452,12.189L0,13.694Z" style="fill:rgb(136,143,145);fill-rule:nonzero;"/>
    </g>
    <g transform="matrix(27.7778,0,0,27.7778,2106.28,3063.73)">
        <path d="M0,15.693L-1.892,15.693L-1.892,9.416C-1.892,8.255 -2.093,7.391 -2.494,6.826C-2.895,6.259 -3.482,5.976 -4.256,5.976C-4.629,5.976 -5.002,6.051 -5.375,6.202C-5.747,6.352 -6.095,6.556 -6.417,6.815C-6.739,7.073 -7.026,7.38 -7.277,7.739C-7.528,8.097 -7.718,8.492 -7.847,8.922L-7.847,15.693L-9.738,15.693L-9.738,0L-7.847,0L-7.847,6.88C-7.402,6.062 -6.801,5.424 -6.041,4.965C-5.281,4.507 -4.45,4.278 -3.547,4.278C-2.888,4.278 -2.329,4.4 -1.87,4.643C-1.412,4.887 -1.046,5.216 -0.774,5.632C-0.502,6.048 -0.305,6.546 -0.183,7.127C-0.061,7.707 0,8.327 0,8.986L0,15.693Z" style="fill:rgb(136,143,145);fill-rule:nonzero;"/>
    </g>
    <g transform="matrix(27.7778,0,0,27.7778,2465.76,3365.28)">
        <path d="M0,-1.526C-0.043,-2.056 -0.176,-2.547 -0.398,-2.999C-0.62,-3.45 -0.899,-3.834 -1.236,-4.149C-1.573,-4.464 -1.964,-4.711 -2.408,-4.89C-2.852,-5.069 -3.325,-5.159 -3.827,-5.159C-4.329,-5.159 -4.801,-5.069 -5.246,-4.89C-5.69,-4.711 -6.081,-4.461 -6.417,-4.138C-6.754,-3.815 -7.026,-3.432 -7.234,-2.988C-7.442,-2.544 -7.567,-2.056 -7.61,-1.526L0,-1.526ZM-3.848,5.052C-4.694,5.052 -5.468,4.898 -6.17,4.59C-6.872,4.282 -7.474,3.863 -7.976,3.332C-8.478,2.802 -8.868,2.182 -9.147,1.473C-9.427,0.763 -9.566,0.015 -9.566,-0.773C-9.566,-1.561 -9.427,-2.307 -9.147,-3.009C-8.868,-3.712 -8.474,-4.328 -7.965,-4.858C-7.457,-5.388 -6.851,-5.807 -6.148,-6.116C-5.446,-6.423 -4.672,-6.578 -3.827,-6.578C-2.981,-6.578 -2.211,-6.42 -1.516,-6.105C-0.821,-5.79 -0.229,-5.371 0.258,-4.847C0.745,-4.324 1.121,-3.714 1.386,-3.02C1.651,-2.325 1.784,-1.604 1.784,-0.86C1.784,-0.702 1.78,-0.558 1.773,-0.429C1.766,-0.3 1.755,-0.2 1.741,-0.129L-7.567,-0.129C-7.524,0.43 -7.395,0.939 -7.18,1.398C-6.965,1.857 -6.686,2.25 -6.342,2.58C-5.998,2.91 -5.607,3.168 -5.17,3.354C-4.733,3.54 -4.271,3.633 -3.784,3.633C-3.439,3.633 -3.103,3.587 -2.773,3.494C-2.444,3.401 -2.136,3.276 -1.849,3.118C-1.562,2.96 -1.308,2.767 -1.086,2.537C-0.864,2.308 -0.695,2.05 -0.581,1.763L1.053,2.214C0.867,2.63 0.613,3.01 0.29,3.354C-0.032,3.698 -0.405,3.995 -0.828,4.246C-1.25,4.497 -1.72,4.694 -2.236,4.837C-2.752,4.981 -3.289,5.052 -3.848,5.052" style="fill:rgb(136,143,145);fill-rule:nonzero;"/>
    </g>
    <g transform="matrix(27.7778,0,0,27.7778,2877.19,3182.56)">
        <path d="M0,11.415L-1.892,11.415L-1.892,5.138C-1.892,3.934 -2.075,3.06 -2.44,2.516C-2.806,1.971 -3.361,1.698 -4.106,1.698C-4.493,1.698 -4.88,1.773 -5.267,1.924C-5.654,2.074 -6.02,2.278 -6.363,2.537C-6.707,2.795 -7.008,3.102 -7.266,3.461C-7.524,3.819 -7.718,4.214 -7.847,4.644L-7.847,11.415L-9.738,11.415L-9.738,0.193L-8.019,0.193L-8.019,2.602C-7.575,1.813 -6.933,1.183 -6.095,0.709C-5.256,0.236 -4.342,0 -3.354,0C-2.708,0 -2.171,0.118 -1.741,0.354C-1.312,0.591 -0.967,0.921 -0.709,1.344C-0.452,1.767 -0.269,2.265 -0.161,2.838C-0.054,3.411 0,4.034 0,4.708L0,11.415Z" style="fill:rgb(136,143,145);fill-rule:nonzero;"/>
    </g>
    <g transform="matrix(27.7778,0,0,27.7778,3151.28,3103.74)">
        <path d="M0,13.694C-0.115,13.751 -0.265,13.819 -0.452,13.898C-0.638,13.977 -0.849,14.055 -1.085,14.134C-1.322,14.214 -1.58,14.277 -1.859,14.328C-2.139,14.378 -2.429,14.403 -2.73,14.403C-3.418,14.403 -4.013,14.214 -4.515,13.834C-5.016,13.454 -5.267,12.863 -5.267,12.06L-5.267,4.514L-6.793,4.514L-6.793,3.031L-5.267,3.031L-5.267,-0.709L-3.375,-0.709L-3.375,3.031L-0.86,3.031L-0.86,4.514L-3.375,4.514L-3.375,11.479C-3.347,11.895 -3.21,12.196 -2.967,12.382C-2.723,12.569 -2.437,12.662 -2.107,12.662C-1.734,12.662 -1.394,12.601 -1.085,12.479C-0.777,12.357 -0.566,12.26 -0.452,12.189L0,13.694Z" style="fill:rgb(136,143,145);fill-rule:nonzero;"/>
    </g>
    <g transform="matrix(27.7778,0,0,27.7778,-7361.26,-3517.75)">
        <path d="M381.396,241.405L383.288,241.405L383.288,252.627L381.396,252.627L381.396,241.405ZM381.396,236.933L383.288,236.933L383.288,239.298L381.396,239.298L381.396,236.933Z" style="fill:rgb(136,143,145);fill-rule:nonzero;"/>
    </g>
    <g transform="matrix(27.7778,0,0,27.7778,3382.38,3344.98)">
        <path d="M0,-0.064C0,-0.852 0.136,-1.598 0.408,-2.3C0.681,-3.002 1.067,-3.615 1.569,-4.138C2.071,-4.662 2.669,-5.077 3.364,-5.385C4.059,-5.693 4.837,-5.847 5.697,-5.847C6.814,-5.847 7.778,-5.6 8.588,-5.106C9.397,-4.611 10.01,-3.948 10.426,-3.117L8.578,-2.537C8.291,-3.067 7.89,-3.479 7.374,-3.773C6.857,-4.066 6.284,-4.213 5.654,-4.213C5.138,-4.213 4.65,-4.109 4.192,-3.902C3.733,-3.694 3.339,-3.404 3.01,-3.031C2.68,-2.659 2.418,-2.221 2.225,-1.719C2.031,-1.218 1.935,-0.667 1.935,-0.064C1.935,0.523 2.035,1.075 2.236,1.591C2.436,2.107 2.705,2.555 3.042,2.934C3.378,3.314 3.773,3.612 4.224,3.827C4.676,4.041 5.159,4.149 5.675,4.149C6.005,4.149 6.331,4.103 6.653,4.009C6.976,3.916 7.27,3.79 7.535,3.633C7.8,3.475 8.033,3.292 8.233,3.084C8.434,2.877 8.578,2.652 8.664,2.408L10.512,2.966C10.34,3.382 10.1,3.762 9.792,4.106C9.484,4.45 9.122,4.744 8.707,4.988C8.291,5.231 7.828,5.424 7.32,5.568C6.811,5.711 6.277,5.783 5.718,5.783C4.873,5.783 4.099,5.624 3.396,5.31C2.694,4.995 2.092,4.572 1.591,4.041C1.089,3.511 0.699,2.891 0.419,2.182C0.14,1.472 0,0.724 0,-0.064" style="fill:rgb(136,143,145);fill-rule:nonzero;"/>
    </g>
    <g transform="matrix(27.7778,0,0,27.7778,4195.66,3365.28)">
        <path d="M0,-1.526C-0.043,-2.056 -0.176,-2.547 -0.397,-2.999C-0.62,-3.45 -0.899,-3.834 -1.235,-4.149C-1.572,-4.464 -1.963,-4.711 -2.407,-4.89C-2.852,-5.069 -3.324,-5.159 -3.826,-5.159C-4.328,-5.159 -4.801,-5.069 -5.245,-4.89C-5.689,-4.711 -6.08,-4.461 -6.417,-4.138C-6.754,-3.815 -7.026,-3.432 -7.233,-2.988C-7.441,-2.544 -7.567,-2.056 -7.61,-1.526L0,-1.526ZM-3.848,5.052C-4.693,5.052 -5.468,4.898 -6.169,4.59C-6.872,4.282 -7.474,3.863 -7.975,3.332C-8.477,2.802 -8.867,2.182 -9.147,1.473C-9.426,0.763 -9.566,0.015 -9.566,-0.773C-9.566,-1.561 -9.426,-2.307 -9.147,-3.009C-8.867,-3.712 -8.473,-4.328 -7.964,-4.858C-7.456,-5.388 -6.851,-5.807 -6.147,-6.116C-5.446,-6.423 -4.672,-6.578 -3.826,-6.578C-2.98,-6.578 -2.211,-6.42 -1.516,-6.105C-0.82,-5.79 -0.229,-5.371 0.259,-4.847C0.745,-4.324 1.122,-3.714 1.387,-3.02C1.652,-2.325 1.784,-1.604 1.784,-0.86C1.784,-0.702 1.781,-0.558 1.773,-0.429C1.767,-0.3 1.756,-0.2 1.741,-0.129L-7.567,-0.129C-7.524,0.43 -7.395,0.939 -7.18,1.398C-6.965,1.857 -6.686,2.25 -6.342,2.58C-5.997,2.91 -5.607,3.168 -5.17,3.354C-4.732,3.54 -4.271,3.633 -3.783,3.633C-3.439,3.633 -3.103,3.587 -2.772,3.494C-2.443,3.401 -2.136,3.276 -1.849,3.118C-1.562,2.96 -1.308,2.767 -1.085,2.537C-0.863,2.308 -0.695,2.05 -0.58,1.763L1.054,2.214C0.867,2.63 0.613,3.01 0.291,3.354C-0.032,3.698 -0.404,3.995 -0.827,4.246C-1.25,4.497 -1.72,4.694 -2.235,4.837C-2.751,4.981 -3.289,5.052 -3.848,5.052" style="fill:rgb(136,143,145);fill-rule:nonzero;"/>
    </g>
    <g transform="matrix(27.7778,0,0,27.7778,4344.94,3499.65)">
        <path d="M0,-11.222L3.074,-7.094L3.246,-6.75L3.44,-7.094L6.492,-11.222L8.492,-11.222L4.299,-5.589L8.513,0L6.513,0L3.44,-4.107L3.246,-4.429L3.074,-4.107L0,0L-1.999,0L2.214,-5.589L-1.978,-11.222L0,-11.222Z" style="fill:rgb(136,143,145);fill-rule:nonzero;"/>
    </g>
    <g transform="matrix(27.7778,0,0,27.7778,4815.47,3349.18)">
        <path d="M0,3.998C0.56,3.998 1.064,3.88 1.516,3.644C1.968,3.407 2.354,3.092 2.677,2.697C2.999,2.304 3.246,1.855 3.419,1.353C3.592,0.852 3.678,0.337 3.678,-0.193C3.678,-0.753 3.577,-1.286 3.376,-1.795C3.175,-2.304 2.902,-2.748 2.559,-3.128C2.215,-3.508 1.81,-3.809 1.344,-4.031C0.878,-4.253 0.373,-4.364 -0.172,-4.364C-0.516,-4.364 -0.87,-4.296 -1.235,-4.16C-1.602,-4.023 -1.945,-3.845 -2.268,-3.623C-2.59,-3.4 -2.869,-3.135 -3.106,-2.827C-3.343,-2.519 -3.497,-2.193 -3.568,-1.849L-3.568,1.353C-3.411,1.727 -3.21,2.074 -2.967,2.396C-2.723,2.719 -2.443,2.999 -2.128,3.235C-1.812,3.472 -1.476,3.658 -1.117,3.794C-0.76,3.931 -0.387,3.998 0,3.998M0.581,5.632C-0.351,5.632 -1.171,5.403 -1.881,4.944C-2.59,4.485 -3.152,3.905 -3.568,3.203L-3.568,9.996L-5.46,9.996L-5.46,-5.805L-3.783,-5.805L-3.783,-3.698C-3.339,-4.386 -2.762,-4.941 -2.053,-5.364C-1.344,-5.786 -0.559,-5.998 0.301,-5.998C1.075,-5.998 1.784,-5.84 2.43,-5.525C3.074,-5.21 3.635,-4.783 4.107,-4.246C4.58,-3.709 4.949,-3.089 5.215,-2.387C5.479,-1.685 5.612,-0.953 5.612,-0.193C5.612,0.609 5.49,1.365 5.247,2.074C5.003,2.783 4.659,3.4 4.215,3.923C3.771,4.446 3.239,4.861 2.623,5.17C2.007,5.477 1.326,5.632 0.581,5.632" style="fill:rgb(136,143,145);fill-rule:nonzero;"/>
    </g>
    <g transform="matrix(27.7778,0,0,27.7778,5313.51,3365.28)">
        <path d="M0,-1.526C-0.043,-2.056 -0.176,-2.547 -0.397,-2.999C-0.62,-3.45 -0.899,-3.834 -1.235,-4.149C-1.572,-4.464 -1.963,-4.711 -2.407,-4.89C-2.852,-5.069 -3.324,-5.159 -3.826,-5.159C-4.328,-5.159 -4.801,-5.069 -5.245,-4.89C-5.689,-4.711 -6.08,-4.461 -6.417,-4.138C-6.754,-3.815 -7.026,-3.432 -7.233,-2.988C-7.441,-2.544 -7.566,-2.056 -7.609,-1.526L0,-1.526ZM-3.848,5.052C-4.693,5.052 -5.468,4.898 -6.169,4.59C-6.872,4.282 -7.474,3.863 -7.976,3.332C-8.477,2.802 -8.867,2.182 -9.146,1.473C-9.426,0.763 -9.566,0.015 -9.566,-0.773C-9.566,-1.561 -9.426,-2.307 -9.146,-3.009C-8.867,-3.712 -8.474,-4.328 -7.965,-4.858C-7.456,-5.388 -6.851,-5.807 -6.147,-6.116C-5.446,-6.423 -4.672,-6.578 -3.826,-6.578C-2.98,-6.578 -2.211,-6.42 -1.516,-6.105C-0.82,-5.79 -0.229,-5.371 0.259,-4.847C0.745,-4.324 1.122,-3.714 1.387,-3.02C1.652,-2.325 1.784,-1.604 1.784,-0.86C1.784,-0.702 1.781,-0.558 1.773,-0.429C1.767,-0.3 1.756,-0.2 1.741,-0.129L-7.566,-0.129C-7.523,0.43 -7.395,0.939 -7.18,1.398C-6.965,1.857 -6.686,2.25 -6.342,2.58C-5.997,2.91 -5.607,3.168 -5.17,3.354C-4.732,3.54 -4.271,3.633 -3.783,3.633C-3.439,3.633 -3.103,3.587 -2.772,3.494C-2.443,3.401 -2.136,3.276 -1.849,3.118C-1.562,2.96 -1.308,2.767 -1.085,2.537C-0.863,2.308 -0.695,2.05 -0.58,1.763L1.054,2.214C0.867,2.63 0.613,3.01 0.291,3.354C-0.032,3.698 -0.404,3.995 -0.827,4.246C-1.25,4.497 -1.72,4.694 -2.235,4.837C-2.751,4.981 -3.289,5.052 -3.848,5.052" style="fill:rgb(136,143,145);fill-rule:nonzero;"/>
    </g>
    <g transform="matrix(27.7778,0,0,27.7778,5619.26,3451.27)">
        <path d="M0,-7.825C-0.946,-7.796 -1.781,-7.553 -2.505,-7.094C-3.229,-6.636 -3.741,-5.998 -4.042,-5.18L-4.042,1.741L-5.934,1.741L-5.934,-9.48L-4.171,-9.48L-4.171,-6.879C-3.784,-7.653 -3.275,-8.28 -2.645,-8.76C-2.014,-9.24 -1.341,-9.509 -0.624,-9.566L-0.259,-9.566C-0.158,-9.566 -0.072,-9.558 0,-9.545L0,-7.825Z" style="fill:rgb(136,143,145);fill-rule:nonzero;"/>
    </g>
    <g transform="matrix(27.7778,0,0,27.7778,-7361.26,-3517.75)">
        <path d="M470.352,241.405L472.244,241.405L472.244,252.627L470.352,252.627L470.352,241.405ZM470.352,236.933L472.244,236.933L472.244,239.298L470.352,239.298L470.352,236.933Z" style="fill:rgb(136,143,145);fill-rule:nonzero;"/>
    </g>
    <g transform="matrix(27.7778,0,0,27.7778,6119.04,3365.28)">
        <path d="M0,-1.526C-0.043,-2.056 -0.176,-2.547 -0.397,-2.999C-0.62,-3.45 -0.899,-3.834 -1.235,-4.149C-1.572,-4.464 -1.963,-4.711 -2.407,-4.89C-2.852,-5.069 -3.324,-5.159 -3.826,-5.159C-4.328,-5.159 -4.801,-5.069 -5.245,-4.89C-5.689,-4.711 -6.08,-4.461 -6.417,-4.138C-6.754,-3.815 -7.026,-3.432 -7.233,-2.988C-7.441,-2.544 -7.566,-2.056 -7.609,-1.526L0,-1.526ZM-3.848,5.052C-4.693,5.052 -5.468,4.898 -6.169,4.59C-6.872,4.282 -7.474,3.863 -7.976,3.332C-8.477,2.802 -8.867,2.182 -9.146,1.473C-9.426,0.763 -9.566,0.015 -9.566,-0.773C-9.566,-1.561 -9.426,-2.307 -9.146,-3.009C-8.867,-3.712 -8.474,-4.328 -7.965,-4.858C-7.456,-5.388 -6.851,-5.807 -6.147,-6.116C-5.446,-6.423 -4.672,-6.578 -3.826,-6.578C-2.98,-6.578 -2.211,-6.42 -1.516,-6.105C-0.82,-5.79 -0.229,-5.371 0.259,-4.847C0.745,-4.324 1.122,-3.714 1.387,-3.02C1.652,-2.325 1.784,-1.604 1.784,-0.86C1.784,-0.702 1.781,-0.558 1.773,-0.429C1.767,-0.3 1.756,-0.2 1.741,-0.129L-7.566,-0.129C-7.523,0.43 -7.395,0.939 -7.18,1.398C-6.965,1.857 -6.686,2.25 -6.342,2.58C-5.997,2.91 -5.607,3.168 -5.17,3.354C-4.732,3.54 -4.271,3.633 -3.783,3.633C-3.439,3.633 -3.103,3.587 -2.772,3.494C-2.443,3.401 -2.136,3.276 -1.849,3.118C-1.562,2.96 -1.308,2.767 -1.085,2.537C-0.863,2.308 -0.695,2.05 -0.58,1.763L1.054,2.214C0.867,2.63 0.613,3.01 0.291,3.354C-0.032,3.698 -0.404,3.995 -0.827,4.246C-1.25,4.497 -1.72,4.694 -2.235,4.837C-2.751,4.981 -3.289,5.052 -3.848,5.052" style="fill:rgb(136,143,145);fill-rule:nonzero;"/>
    </g>
    <g transform="matrix(27.7778,0,0,27.7778,6530.5,3182.56)">
        <path d="M0,11.415L-1.892,11.415L-1.892,5.138C-1.892,3.934 -2.074,3.06 -2.44,2.516C-2.806,1.971 -3.361,1.698 -4.106,1.698C-4.493,1.698 -4.88,1.773 -5.267,1.924C-5.654,2.074 -6.02,2.278 -6.363,2.537C-6.707,2.795 -7.008,3.102 -7.267,3.461C-7.524,3.819 -7.718,4.214 -7.847,4.644L-7.847,11.415L-9.738,11.415L-9.738,0.193L-8.019,0.193L-8.019,2.602C-7.574,1.813 -6.933,1.183 -6.095,0.709C-5.256,0.236 -4.343,0 -3.354,0C-2.709,0 -2.171,0.118 -1.741,0.354C-1.312,0.591 -0.968,0.921 -0.709,1.344C-0.451,1.767 -0.269,2.265 -0.161,2.838C-0.054,3.411 0,4.034 0,4.708L0,11.415Z" style="fill:rgb(136,143,145);fill-rule:nonzero;"/>
    </g>
    <g transform="matrix(27.7778,0,0,27.7778,6624.22,3344.98)">
        <path d="M0,-0.064C0,-0.852 0.137,-1.598 0.409,-2.3C0.681,-3.002 1.068,-3.615 1.569,-4.138C2.071,-4.662 2.67,-5.077 3.365,-5.385C4.06,-5.693 4.837,-5.847 5.697,-5.847C6.815,-5.847 7.778,-5.6 8.589,-5.106C9.398,-4.611 10.011,-3.948 10.427,-3.117L8.578,-2.537C8.291,-3.067 7.89,-3.479 7.374,-3.773C6.858,-4.066 6.285,-4.213 5.654,-4.213C5.139,-4.213 4.651,-4.109 4.192,-3.902C3.733,-3.694 3.34,-3.404 3.01,-3.031C2.681,-2.659 2.419,-2.221 2.226,-1.719C2.032,-1.218 1.936,-0.667 1.936,-0.064C1.936,0.523 2.035,1.075 2.236,1.591C2.437,2.107 2.705,2.555 3.042,2.934C3.379,3.314 3.773,3.612 4.225,3.827C4.676,4.041 5.16,4.149 5.676,4.149C6.005,4.149 6.331,4.103 6.654,4.009C6.977,3.916 7.27,3.79 7.535,3.633C7.801,3.475 8.033,3.292 8.234,3.084C8.435,2.877 8.578,2.652 8.664,2.408L10.513,2.966C10.341,3.382 10.101,3.762 9.793,4.106C9.484,4.45 9.122,4.744 8.707,4.988C8.291,5.231 7.829,5.424 7.32,5.568C6.812,5.711 6.277,5.783 5.719,5.783C4.873,5.783 4.099,5.624 3.397,5.31C2.694,4.995 2.093,4.572 1.591,4.041C1.09,3.511 0.699,2.891 0.42,2.182C0.141,1.472 0,0.724 0,-0.064" style="fill:rgb(136,143,145);fill-rule:nonzero;"/>
    </g>
    <g transform="matrix(27.7778,0,0,27.7778,7253.62,3365.28)">
        <path d="M0,-1.526C-0.043,-2.056 -0.176,-2.547 -0.397,-2.999C-0.62,-3.45 -0.899,-3.834 -1.235,-4.149C-1.572,-4.464 -1.963,-4.711 -2.407,-4.89C-2.852,-5.069 -3.324,-5.159 -3.826,-5.159C-4.328,-5.159 -4.801,-5.069 -5.245,-4.89C-5.689,-4.711 -6.08,-4.461 -6.417,-4.138C-6.754,-3.815 -7.026,-3.432 -7.233,-2.988C-7.441,-2.544 -7.566,-2.056 -7.609,-1.526L0,-1.526ZM-3.848,5.052C-4.693,5.052 -5.468,4.898 -6.169,4.59C-6.872,4.282 -7.474,3.863 -7.976,3.332C-8.477,2.802 -8.867,2.182 -9.146,1.473C-9.426,0.763 -9.566,0.015 -9.566,-0.773C-9.566,-1.561 -9.426,-2.307 -9.146,-3.009C-8.867,-3.712 -8.474,-4.328 -7.965,-4.858C-7.456,-5.388 -6.851,-5.807 -6.147,-6.116C-5.446,-6.423 -4.672,-6.578 -3.826,-6.578C-2.98,-6.578 -2.211,-6.42 -1.516,-6.105C-0.82,-5.79 -0.229,-5.371 0.259,-4.847C0.745,-4.324 1.122,-3.714 1.387,-3.02C1.652,-2.325 1.784,-1.604 1.784,-0.86C1.784,-0.702 1.781,-0.558 1.773,-0.429C1.767,-0.3 1.756,-0.2 1.741,-0.129L-7.566,-0.129C-7.523,0.43 -7.395,0.939 -7.18,1.398C-6.965,1.857 -6.686,2.25 -6.342,2.58C-5.997,2.91 -5.607,3.168 -5.17,3.354C-4.732,3.54 -4.271,3.633 -3.783,3.633C-3.439,3.633 -3.103,3.587 -2.772,3.494C-2.443,3.401 -2.136,3.276 -1.849,3.118C-1.562,2.96 -1.308,2.767 -1.085,2.537C-0.863,2.308 -0.695,2.05 -0.58,1.763L1.054,2.214C0.867,2.63 0.613,3.01 0.291,3.354C-0.032,3.698 -0.404,3.995 -0.827,4.246C-1.25,4.497 -1.72,4.694 -2.235,4.837C-2.751,4.981 -3.289,5.052 -3.848,5.052" style="fill:rgb(136,143,145);fill-rule:nonzero;"/>
    </g>
    <g transform="matrix(27.7778,0,0,27.7778,2612.57,2156.82)">
        <path d="M0,4.706L-14.523,4.706C-15.268,4.706 -15.871,3.654 -15.871,2.352C-15.871,1.053 -15.268,0 -14.523,0L0,0C0.744,0 1.347,1.053 1.347,2.352C1.347,3.654 0.744,4.706 0,4.706" style="fill:rgb(163,213,94);fill-rule:nonzero;"/>
    </g>
    <g transform="matrix(27.7778,0,0,27.7778,8832.26,1659.11)">
        <path d="M0,-0.542L0.349,-0.542C0.844,-0.542 1.151,-0.561 1.271,-0.599C1.391,-0.637 1.485,-0.704 1.555,-0.799C1.624,-0.895 1.658,-1.003 1.658,-1.124C1.658,-1.242 1.625,-1.347 1.558,-1.439C1.489,-1.531 1.394,-1.597 1.269,-1.636C1.144,-1.676 0.837,-1.696 0.349,-1.696L0,-1.696L0,-0.542ZM-0.858,1.86L-0.858,-2.367L0,-2.367C0.804,-2.367 1.255,-2.363 1.352,-2.356C1.636,-2.333 1.857,-2.276 2.015,-2.188C2.173,-2.099 2.304,-1.964 2.41,-1.782C2.516,-1.6 2.568,-1.398 2.568,-1.176C2.568,-0.871 2.469,-0.61 2.27,-0.394C2.07,-0.177 1.79,-0.042 1.43,0.009C1.558,0.058 1.657,0.111 1.727,0.168C1.796,0.225 1.891,0.333 2.012,0.493C2.043,0.535 2.147,0.706 2.324,1.008L2.823,1.86L1.763,1.86L1.409,1.174C1.17,0.713 0.972,0.423 0.816,0.303C0.66,0.184 0.463,0.124 0.224,0.124L0,0.124L0,1.86L-0.858,1.86ZM0.946,-3.475C0.398,-3.475 -0.127,-3.337 -0.63,-3.064C-1.132,-2.79 -1.528,-2.396 -1.817,-1.883C-2.107,-1.37 -2.252,-0.833 -2.252,-0.271C-2.252,0.287 -2.11,0.819 -1.828,1.325C-1.546,1.831 -1.151,2.227 -0.645,2.511C-0.139,2.795 0.392,2.937 0.946,2.937C1.504,2.937 2.035,2.795 2.54,2.511C3.044,2.227 3.438,1.831 3.723,1.325C4.007,0.819 4.149,0.287 4.149,-0.271C4.149,-0.833 4.005,-1.37 3.715,-1.883C3.426,-2.396 3.028,-2.79 2.524,-3.064C2.02,-3.337 1.494,-3.475 0.946,-3.475M0.941,-4.254C1.624,-4.254 2.279,-4.084 2.906,-3.742C3.534,-3.401 4.027,-2.911 4.386,-2.273C4.745,-1.636 4.924,-0.968 4.924,-0.271C4.924,0.422 4.748,1.083 4.396,1.712C4.045,2.342 3.554,2.832 2.925,3.184C2.296,3.536 1.635,3.712 0.941,3.712C0.248,3.712 -0.414,3.536 -1.043,3.184C-1.672,2.832 -2.163,2.342 -2.515,1.712C-2.866,1.083 -3.042,0.422 -3.042,-0.271C-3.042,-0.968 -2.862,-1.636 -2.504,-2.273C-2.146,-2.911 -1.652,-3.401 -1.024,-3.742C-0.397,-4.084 0.258,-4.254 0.941,-4.254" style="fill:rgb(39,183,224);fill-rule:nonzero;"/>
    </g>
</svg>
